<svg width="1024" height="999" viewBox="0 0 1024 999" fill="none" xmlns="http://www.w3.org/2000/svg">
<path d="M512 0C229.25 0 0 229.25 0 512C0 738.25 146.688 930.125 350.156 997.812C375.75 1002.5 385.094 986.687 385.094 973.187C385.094 960.999 384.625 920.625 384.375 877.875C242 908.812 211.906 817.5 211.906 817.5C188.594 758.375 155.062 742.625 155.062 742.625C108.531 710.875 158.592 711.5 158.592 711.5C209.998 715.062 237.062 764.25 237.062 764.25C282.75 842.5 356.937 819.875 386.062 806.75C390.716 773.75 403.966 751.125 418.562 738.375C304.906 725.438 185.344 681.5 185.344 485.312C185.344 429.374 205.313 383.75 238 347.906C232.781 334.906 215.156 282.812 243.062 212.344C243.062 212.344 286 198.594 383.874 264.844C424.686 253.438 468.468 247.813 511.999 247.625C555.499 247.813 599.311 253.5 640.187 264.906C737.875 198.594 780.875 212.406 780.875 212.406C808.875 282.937 791.25 334.968 786 347.906C818.812 383.75 838.625 429.375 838.625 485.312C838.625 682 718.875 725.312 604.813 738C623.251 753.875 639.563 785 639.563 832.75C639.563 901.188 638.875 956.375 638.875 973.25C638.875 986.875 648.187 1002.81 674.125 997.812C877.438 930 1024 738.125 1024 512C1024 229.25 794.75 0 512 0Z" fill="#DB5262"/>
</svg>
